# xmcd CD database file
#
# Track frame offsets:
#	150
#	23537
#	49256
#	82140
#	102756
#	124339
#	140964
#	159541
#	176239
#	189697
#
# Disc length: 2913 seconds
#
# Revision: 0
# Processed by: cddbd v1.5.1PL2 Copyright (c) Steve Scherf et al.
# Submitted via: CDex 1.50
#
DISCID=900b5f0a
DTITLE=Buddy Rich - Argo, Emarcy and Verve Small Group Sessions Disc 3
DYEAR=2006
DGENRE=Jazz
TTITLE0=Shorty George
TTITLE1=Jump For Me
TTITLE2=Blues For Basie
TTITLE3=9:20 Special
TTITLE4=Blue And Sentimental
TTITLE5=Blue And Sentimental 45 tk
TTITLE6=Down For Double
TTITLE7=Down For Double 45 tk
TTITLE8=Ain't It The Truth
TTITLE9=Jumpin' At The Woodside
EXTD=YEAR: 2006
EXTT0=
EXTT1=
EXTT2=
EXTT3=
EXTT4=
EXTT5=
EXTT6=
EXTT7=
EXTT8=
EXTT9=
PLAYORDER=
